<svg xmlns="http://www.w3.org/2000/svg" width="430" height="430" style="width:100%;height:100%;transform:translate3d(0,0,0);content-visibility:visible" viewBox="0 0 430 430"><defs><clipPath id="m"><path d="M0 0h430v430H0z"/></clipPath><clipPath id="x"><path d="M0 0h430v430H0z"/></clipPath><clipPath id="v"><path d="M0 0h430v430H0z"/></clipPath><clipPath id="t"><path d="M0 0h430v430H0z"/></clipPath><clipPath id="r"><path d="M0 0h430v430H0z"/></clipPath><clipPath id="p"><path d="M0 0h430v430H0z"/></clipPath><clipPath id="n"><path d="M0 0h430v430H0z"/></clipPath><filter id="a" width="100%" height="100%" x="0%" y="0%" filterUnits="objectBoundingBox"><feComponentTransfer in="SourceGraphic"><feFuncA tableValues="1.0 0.0" type="table"/></feComponentTransfer></filter><filter id="c" width="100%" height="100%" x="0%" y="0%" filterUnits="objectBoundingBox"><feComponentTransfer in="SourceGraphic"><feFuncA tableValues="1.0 0.0" type="table"/></feComponentTransfer></filter><filter id="e" width="100%" height="100%" x="0%" y="0%" filterUnits="objectBoundingBox"><feComponentTransfer in="SourceGraphic"><feFuncA tableValues="1.0 0.0" type="table"/></feComponentTransfer></filter><filter id="g" width="100%" height="100%" x="0%" y="0%" filterUnits="objectBoundingBox"><feComponentTransfer in="SourceGraphic"><feFuncA tableValues="1.0 0.0" type="table"/></feComponentTransfer></filter><filter id="i" width="100%" height="100%" x="0%" y="0%" filterUnits="objectBoundingBox"><feComponentTransfer in="SourceGraphic"><feFuncA tableValues="1.0 0.0" type="table"/></feComponentTransfer></filter><filter id="k" width="100%" height="100%" x="0%" y="0%" filterUnits="objectBoundingBox"><feComponentTransfer in="SourceGraphic"><feFuncA tableValues="1.0 0.0" type="table"/></feComponentTransfer></filter><mask id="y" mask-type="alpha" maskUnits="userSpaceOnUse"><g filter="url(#a)"><path fill="#fff" d="M0 0h430v430H0z" opacity="0"/><use xmlns:ns1="http://www.w3.org/1999/xlink" ns1:href="#b"/></g></mask><mask id="w" mask-type="alpha" maskUnits="userSpaceOnUse"><g filter="url(#c)"><path fill="#fff" d="M0 0h430v430H0z" opacity="0"/><use xmlns:ns2="http://www.w3.org/1999/xlink" ns2:href="#d"/></g></mask><mask id="u" mask-type="alpha" maskUnits="userSpaceOnUse"><g filter="url(#e)"><path fill="#fff" d="M0 0h430v430H0z" opacity="0"/><use xmlns:ns3="http://www.w3.org/1999/xlink" ns3:href="#f"/></g></mask><mask id="s" mask-type="alpha" maskUnits="userSpaceOnUse"><g filter="url(#g)"><path fill="#fff" d="M0 0h430v430H0z" opacity="0"/><use xmlns:ns4="http://www.w3.org/1999/xlink" ns4:href="#h"/></g></mask><mask id="q" mask-type="alpha" maskUnits="userSpaceOnUse"><g filter="url(#i)"><path fill="#fff" d="M0 0h430v430H0z" opacity="0"/><use xmlns:ns5="http://www.w3.org/1999/xlink" ns5:href="#j"/></g></mask><mask id="o" mask-type="alpha" maskUnits="userSpaceOnUse"><g filter="url(#k)"><path fill="#fff" d="M0 0h430v430H0z" opacity="0"/><use xmlns:ns6="http://www.w3.org/1999/xlink" ns6:href="#l"/></g></mask><g id="b" style="display:none"><path class="primary"/><path fill-opacity="0" stroke-linecap="round" stroke-linejoin="round" class="primary"/></g><g id="d" style="display:none"><path class="primary"/><path fill-opacity="0" stroke-linecap="round" stroke-linejoin="round" class="primary"/></g><g id="f" style="display:block"><path fill="#00B300" d="M132.372 203.241c-1.69-12.142-1.714-24.741.528-37.481 11.627-66.048 76.634-109.298 142.891-93.185 56.173 13.659 94.291 67.645 88.386 125.151-1.54 15.01-5.925 28.92-12.222 41.51-29.383 58.75-136.945 133.968-136.945 133.968s-72.137-94.557-82.638-169.963" class="primary"/><path fill-opacity="0" stroke="#00B300" stroke-linecap="round" stroke-linejoin="round" stroke-width="3.5" d="M132.372 203.241c-1.69-12.142-1.714-24.741.528-37.481 11.627-66.048 76.634-109.298 142.891-93.185 56.173 13.659 94.291 67.645 88.386 125.151-1.54 15.01-5.925 28.92-12.222 41.51-29.383 58.75-136.945 133.968-136.945 133.968s-72.137-94.557-82.638-169.963" class="primary"/></g><g id="h" style="display:none"><path class="primary"/><path fill-opacity="0" stroke-linecap="round" stroke-linejoin="round" class="primary"/></g><g id="j" style="display:none"><path class="primary"/><path fill-opacity="0" stroke-linecap="round" stroke-linejoin="round" class="primary"/></g><g id="l" style="display:none"><path class="primary"/><path fill-opacity="0" stroke-linecap="round" stroke-linejoin="round" class="primary"/></g></defs><g clip-path="url(#m)"><g clip-path="url(#n)" style="display:none"><g style="display:none"><path class="primary"/><path fill="none" class="primary"/></g><g mask="url(#o)" style="mix-blend-mode:multiply;display:none"><path class="primary"/><path fill="none" class="primary"/></g></g><g clip-path="url(#p)" style="display:none"><g style="display:none"><path class="primary"/><path fill="none" class="primary"/></g><g mask="url(#q)" style="mix-blend-mode:multiply;display:none"><path class="primary"/><path fill="none" class="primary"/></g></g><g clip-path="url(#r)" style="display:none"><path fill="none" class="primary" style="display:none"/><g style="display:none"><path class="primary"/><path fill="none" class="primary"/></g><g mask="url(#s)" style="mix-blend-mode:multiply;display:none"><path class="primary"/><path fill="none" class="primary"/></g></g><g clip-path="url(#t)" style="display:block"><path fill="none" stroke="#00B300" stroke-linecap="round" stroke-linejoin="round" stroke-width="7" d="M215 215" class="primary" style="display:block"/><g style="display:block"><path fill="#00B300" d="M104.114 220.17c-3.773-11.665-5.985-24.068-5.988-37.004-.02-67.064 56.49-120.945 124.538-116.582 57.692 3.697 104.605 50.244 108.776 107.902 1.09 15.05-.814 29.508-4.828 43.002C307.877 280.448 215.01 373.2 215.01 373.2s-87.46-80.594-110.896-153.03m165.795-37.046c-.009-30.356-24.624-54.957-54.98-54.948-30.355.008-54.956 24.624-54.948 54.98s24.624 54.953 54.98 54.944 54.957-24.62 54.948-54.976" class="primary"/><path fill="none" stroke="#00B300" stroke-linecap="round" stroke-linejoin="round" stroke-width="3.5" d="M104.114 220.17c-3.773-11.665-5.985-24.068-5.988-37.004-.02-67.064 56.49-120.945 124.538-116.582 57.692 3.697 104.605 50.244 108.776 107.902 1.09 15.05-.814 29.508-4.828 43.002C307.877 280.448 215.01 373.2 215.01 373.2s-87.46-80.594-110.896-153.03m165.795-37.046c-.009-30.356-24.624-54.957-54.98-54.948-30.355.008-54.956 24.624-54.948 54.98s24.624 54.953 54.98 54.944 54.957-24.62 54.948-54.976" class="primary"/></g><g opacity=".5" style="mix-blend-mode:multiply;display:block"><g mask="url(#u)" opacity="1"><path fill="#00B300" d="M104.114 220.17c-3.773-11.665-5.985-24.068-5.988-37.004-.02-67.064 56.49-120.945 124.538-116.582 57.692 3.697 104.605 50.244 108.776 107.902 1.09 15.05-.814 29.508-4.828 43.002C307.877 280.448 215.01 373.2 215.01 373.2s-87.46-80.594-110.896-153.03m165.795-37.046c-.009-30.356-24.624-54.957-54.98-54.948-30.355.008-54.956 24.624-54.948 54.98s24.624 54.953 54.98 54.944 54.957-24.62 54.948-54.976" class="primary"/><path fill="none" stroke="#00B300" stroke-linecap="round" stroke-linejoin="round" stroke-width="3.5" d="M104.114 220.17c-3.773-11.665-5.985-24.068-5.988-37.004-.02-67.064 56.49-120.945 124.538-116.582 57.692 3.697 104.605 50.244 108.776 107.902 1.09 15.05-.814 29.508-4.828 43.002C307.877 280.448 215.01 373.2 215.01 373.2s-87.46-80.594-110.896-153.03m165.795-37.046c-.009-30.356-24.624-54.957-54.98-54.948-30.355.008-54.956 24.624-54.948 54.98s24.624 54.953 54.98 54.944 54.957-24.62 54.948-54.976" class="primary"/></g></g></g><g clip-path="url(#v)" style="display:none"><g style="display:none"><path class="primary"/><path fill="none" class="primary"/></g><g mask="url(#w)" style="mix-blend-mode:multiply;display:none"><path class="primary"/><path fill="none" class="primary"/></g></g><g clip-path="url(#x)" style="display:none"><path fill="none" class="primary" style="display:none"/><g style="display:none"><path class="primary"/><path fill="none" class="primary"/></g><g mask="url(#y)" style="mix-blend-mode:multiply;display:none"><path class="primary"/><path fill="none" class="primary"/></g></g></g></svg>